<mxfile host="app.diagrams.net" modified="2022-02-05T18:41:12.398Z" agent="5.0 (Windows NT 10.0; Win64; x64) AppleWebKit/537.36 (KHTML, like Gecko) Chrome/98.0.4758.82 Safari/537.36" etag="IPpT30ZRfxqNLxXM7qVd" version="16.5.3" type="github" pages="3">
  <diagram id="3h-9Z3lSCcHHfdDyXxEj" name="Page-1">
    <mxGraphModel dx="1278" dy="568" grid="1" gridSize="10" guides="1" tooltips="1" connect="1" arrows="1" fold="1" page="1" pageScale="1" pageWidth="1169" pageHeight="827" math="0" shadow="0">
      <root>
        <mxCell id="0" />
        <mxCell id="1" parent="0" />
      </root>
    </mxGraphModel>
  </diagram>
  <diagram id="r7Bm2tmkXgzSUH_NrF0L" name="Page-2">
    <mxGraphModel dx="1278" dy="568" grid="1" gridSize="10" guides="1" tooltips="1" connect="1" arrows="1" fold="1" page="1" pageScale="1" pageWidth="1169" pageHeight="827" math="0" shadow="0">
      <root>
        <mxCell id="A40Qt52ochG1vdMeE7qi-0" />
        <mxCell id="A40Qt52ochG1vdMeE7qi-1" parent="A40Qt52ochG1vdMeE7qi-0" />
      </root>
    </mxGraphModel>
  </diagram>
  <diagram id="km8j8MFnZH-VsSCmyVqp" name="Page-3">
    <mxGraphModel dx="1278" dy="568" grid="1" gridSize="10" guides="1" tooltips="1" connect="1" arrows="1" fold="1" page="1" pageScale="1" pageWidth="1169" pageHeight="827" math="0" shadow="0">
      <root>
        <mxCell id="dFzqFkTZzmN3MJdiwz0j-0" />
        <mxCell id="dFzqFkTZzmN3MJdiwz0j-1" parent="dFzqFkTZzmN3MJdiwz0j-0" />
      </root>
    </mxGraphModel>
  </diagram>
</mxfile>
